<?xml version="1.0" encoding="UTF-8"?>
<svg id="Glyph" xmlns="http://www.w3.org/2000/svg" version="1.1" viewBox="0 0 64 64">
  <!-- Generator: Adobe Illustrator 30.2.1, SVG Export Plug-In . SVG Version: 2.1.1 Build 1)  -->
  <defs>
    <style>
      .st0 {
        fill: #fff;
      }
    </style>
  </defs>
  <path class="st0" d="M15.4,18.2v13.6c0,9.6,7.1,18.1,16.6,19.8,9.5-1.7,16.6-10.2,16.6-19.8v-13.5c-7.8-.8-13.6-3.4-16.7-5.1-3.2,1.6-9.1,4.2-16.5,5.1ZM33,21v2h3v-2c0-.6.4-1,1-1s1,.4,1,1v2h2c.6,0,1,.4,1,1v2h2c.6,0,1,.4,1,1s-.4,1-1,1h-2v3h2c.6,0,1,.4,1,1s-.4,1-1,1h-2v3h2c.6,0,1,.4,1,1s-.4,1-1,1h-2v2c0,.6-.4,1-1,1h-2v2c0,.6-.4,1-1,1s-1-.4-1-1v-2h-3v2c0,.6-.4,1-1,1s-1-.4-1-1v-2h-3v2c0,.6-.4,1-1,1s-1-.4-1-1v-2h-2c-.6,0-1-.4-1-1v-2h-2c-.6,0-1-.4-1-1s.4-1,1-1h2v-3h-2c-.6,0-1-.4-1-1s.4-1,1-1h2v-3h-2c-.6,0-1-.4-1-1s.4-1,1-1h2.6l2.4-2.4v-2.6c0-.6.4-1,1-1s1,.4,1,1v2h3v-2c0-.6.4-1,1-1s1,.4,1,1Z"/>
  <path class="st0" d="M25,27.4v11.6h14v-14h-11.6l-2.4,2.4ZM35.2,29c0-.6.4-1,1-1s1,.4,1,1v6c0,.6-.4,1-1,1s-1-.4-1-1v-6ZM30.2,28c.4,0,.8.2.9.6l2.5,6c.2.5,0,1.1-.5,1.3-.5.2-1.1,0-1.3-.5,0,0-.2-.4-.2-.4h-2.8l-.2.4c-.2.5-.8.8-1.3.5-.5-.2-.8-.8-.5-1.3l2.5-6c.2-.4.5-.6.9-.6Z"/>
  <path class="st0" d="M30.2,31.6l-.6,1.4h1.2l-.6-1.4Z"/>
  <path class="st0" d="M53,13c-12.5,0-20.3-5.7-20.4-5.8-.3-.3-.8-.3-1.2,0,0,0-8.9,5.8-20.4,5.8s-1,.4-1,1v17.8c0,12.6,9.4,23.4,21.9,25.2,0,0,0,0,.1,0s0,0,.1,0c12.5-1.8,21.9-12.6,21.9-25.2V14c0-.6-.4-1-1-1ZM50.6,31.8c0,10.6-7.9,20-18.4,21.8,0,0-.1,0-.2,0s-.1,0-.2,0c-10.5-1.8-18.4-11.2-18.4-21.8v-14.5c0-.5.4-.9.9-1,7.8-.8,14.1-3.6,17.1-5.2.3-.2.7-.2,1,0,2.9,1.6,9,4.5,17.3,5.2.5,0,.9.5.9,1v14.4h0Z"/>
</svg>