<?xml version="1.0" encoding="UTF-8"?>
<svg id="Glyph" xmlns="http://www.w3.org/2000/svg" version="1.1" viewBox="0 0 64 64">
  <!-- Generator: Adobe Illustrator 30.2.1, SVG Export Plug-In . SVG Version: 2.1.1 Build 1)  -->
  <defs>
    <style>
      .st0 {
        fill: #fff;
      }
    </style>
  </defs>
  <path class="st0" d="M10.8,14.4v17.4c0,12.3,9.1,23.2,21.2,25.3,12.2-2.2,21.2-13,21.2-25.3V14.5c-10-1-17.4-4.3-21.4-6.5-4.1,2-11.6,5.4-21.1,6.5h0ZM33.3,17.9v2.6h3.8v-2.6c0-.8.5-1.3,1.3-1.3s1.3.5,1.3,1.3v2.6h2.6c.8,0,1.3.5,1.3,1.3v2.6h2.6c.8,0,1.3.5,1.3,1.3s-.5,1.3-1.3,1.3h-2.6v3.8h2.6c.8,0,1.3.5,1.3,1.3s-.5,1.3-1.3,1.3h-2.6v3.8h2.6c.8,0,1.3.5,1.3,1.3s-.5,1.3-1.3,1.3h-2.6v2.6c0,.8-.5,1.3-1.3,1.3h-2.6v2.6c0,.8-.5,1.3-1.3,1.3s-1.3-.5-1.3-1.3v-2.6h-3.8v2.6c0,.8-.5,1.3-1.3,1.3s-1.3-.5-1.3-1.3v-2.6h-3.8v2.6c0,.8-.5,1.3-1.3,1.3s-1.3-.5-1.3-1.3v-2.6h-2.6c-.8,0-1.3-.5-1.3-1.3v-2.6h-2.6c-.8,0-1.3-.5-1.3-1.3s.5-1.3,1.3-1.3h2.6v-3.8h-2.6c-.8,0-1.3-.5-1.3-1.3s.5-1.3,1.3-1.3h2.6v-3.8h-2.6c-.8,0-1.3-.5-1.3-1.3s.5-1.3,1.3-1.3h3.3l3.1-3.1v-3.3c0-.8.5-1.3,1.3-1.3s1.3.5,1.3,1.3v2.6h3.8v-2.6c0-.8.5-1.3,1.3-1.3s1.3.5,1.3,1.3Z"/>
  <path class="st0" d="M23,26.1v14.8h17.9v-17.9h-14.8l-3.1,3.1ZM36.1,28.2c0-.8.5-1.3,1.3-1.3s1.3.5,1.3,1.3v7.7c0,.8-.5,1.3-1.3,1.3s-1.3-.5-1.3-1.3v-7.7ZM29.7,26.9c.5,0,1,.3,1.2.8l3.2,7.7c.3.6,0,1.4-.6,1.7s-1.4,0-1.7-.6l-.3-.5h-3.6l-.3.5c-.3.6-1,1-1.7.6-.6-.3-1-1-.6-1.7l3.2-7.7c.3-.5.6-.8,1.2-.8Z"/>
  <path class="st0" d="M29.7,31.5l-.8,1.8h1.5l-.8-1.8Z"/>
  <path class="st0" d="M58.9,7.7C42.9,7.7,32.9.4,32.8.3c-.4-.4-1-.4-1.5,0,0,0-11.4,7.4-26.1,7.4s-1.3.5-1.3,1.3v22.8c0,16.1,12,29.9,28,32.2h.3c16-2.3,28-16.1,28-32.2V9c0-.8-.5-1.3-1.3-1.3ZM55.8,31.8c0,13.6-10.1,25.6-23.5,27.9h-.5c-13.4-2.3-23.5-14.3-23.5-27.9V13.2c0-.6.5-1.2,1.2-1.3,10-1,18-4.6,21.9-6.7.4-.3.9-.3,1.3,0,3.7,2,11.5,5.8,22.1,6.7.6,0,1.2.6,1.2,1.3v18.4h0Z"/>
</svg>